<svg width="24" height="24" viewBox="0 0 24 24" fill="none" xmlns="http://www.w3.org/2000/svg">
<path fill-rule="evenodd" clip-rule="evenodd" d="M1.5 12C1.5 6.20125 6.20125 1.5 12 1.5C17.7987 1.5 22.5 6.20125 22.5 12C22.5 17.7987 17.7987 22.5 12 22.5C6.20125 22.5 1.5 17.7987 1.5 12ZM15.7245 20.1955C16.4649 19.8584 17.1517 19.424 17.7684 18.9085C17.4513 18.7004 17.1197 18.5089 16.7751 18.3355C16.6323 18.6582 16.4793 18.9664 16.3171 19.2584C16.1347 19.5868 15.9367 19.901 15.7245 20.1955ZM17.3042 16.9237C17.8487 17.1884 18.367 17.4926 18.8545 17.8324C20.0406 16.4398 20.8098 14.6814 20.9692 12.75H18.0155C17.9519 14.246 17.6999 15.6607 17.3042 16.9237ZM16.514 12.75C16.4535 14.0522 16.2376 15.2715 15.9103 16.3533C14.9141 16.0178 13.853 15.8071 12.75 15.741V12.75H16.514ZM18.0155 11.25H20.9692C20.8098 9.31865 20.0406 7.56015 18.8545 6.16758C18.367 6.50738 17.8487 6.81163 17.3042 7.07628C17.6999 8.33931 17.9519 9.75395 18.0155 11.25ZM15.9103 7.64666C16.2376 8.72853 16.4535 9.94782 16.514 11.25H12.75V8.25901C13.853 8.19293 14.9141 7.98216 15.9103 7.64666ZM16.7751 5.66454C17.1197 5.49111 17.4513 5.29959 17.7684 5.09149C17.1517 4.57601 16.4649 4.14155 15.7245 3.8045C15.9367 4.09905 16.1347 4.41319 16.3171 4.74161C16.4793 5.03365 16.6323 5.34183 16.7751 5.66454ZM8.2755 3.80449C7.53506 4.14155 6.84832 4.57601 6.23163 5.09149C6.54872 5.29959 6.88032 5.49111 7.22486 5.66454C7.36765 5.34183 7.52068 5.03365 7.6829 4.74161C7.86532 4.41319 8.0633 4.09905 8.2755 3.80449ZM6.69579 7.07628C6.15131 6.81163 5.63301 6.50738 5.14553 6.16758C3.95943 7.56015 3.19017 9.31865 3.03081 11.25H5.98451C6.04815 9.75395 6.30013 8.33931 6.69579 7.07628ZM7.48598 11.25C7.54651 9.94782 7.76237 8.72853 8.08967 7.64666C9.0859 7.98215 10.147 8.19293 11.25 8.25901V11.25H7.48598ZM5.98451 12.75H3.03081C3.19017 14.6814 3.95943 16.4398 5.14553 17.8324C5.63301 17.4926 6.15131 17.1884 6.69579 16.9237C6.30013 15.6607 6.04815 14.246 5.98451 12.75ZM8.08967 16.3533C7.76237 15.2715 7.54651 14.0522 7.48598 12.75H11.25V15.741C10.147 15.8071 9.0859 16.0178 8.08967 16.3533ZM7.22486 18.3355C7.36765 18.6582 7.52068 18.9664 7.6829 19.2584C7.86532 19.5868 8.0633 19.901 8.2755 20.1955C7.53506 19.8584 6.84832 19.424 6.23163 18.9085C6.54872 18.7004 6.88032 18.5089 7.22486 18.3355ZM8.6109 17.7607C9.44259 17.4846 10.328 17.3069 11.25 17.244V20.8459C10.4939 20.5423 9.6914 19.7852 8.99418 18.53C8.85962 18.2878 8.73152 18.0309 8.6109 17.7607ZM12.75 17.244C13.672 17.3069 14.5574 17.4846 15.3891 17.7607C15.2685 18.0309 15.1404 18.2878 15.0058 18.53C14.3086 19.7852 13.5061 20.5423 12.75 20.8459V17.244ZM11.25 6.75595C10.328 6.69312 9.44259 6.51543 8.6109 6.23931C8.73152 5.96909 8.85962 5.71223 8.99418 5.46999C9.6914 4.21481 10.4939 3.4577 11.25 3.15412V6.75595ZM12.75 6.75595C13.672 6.69312 14.5574 6.51543 15.3891 6.23931C15.2685 5.96909 15.1404 5.71223 15.0058 5.46999C14.3086 4.21481 13.5061 3.4577 12.75 3.15412V6.75595Z" fill="#E0E0E0"/>
</svg>
