<svg width="24" height="24" viewBox="0 0 24 24" fill="none" xmlns="http://www.w3.org/2000/svg">
<path d="M23.8442 6.97453C23.8442 4.86516 22.2926 3.16828 20.3754 3.16828C17.7785 3.04687 15.1301 3 12.4235 3H11.5798C8.87978 3 6.22666 3.04687 3.62978 3.16875C1.71728 3.16875 0.165721 4.875 0.165721 6.98437C0.0485333 8.65266 -0.00115416 10.3214 0.00165834 11.9902C-0.00302916 13.6589 0.0500959 15.3292 0.161033 17.0011C0.161033 19.1105 1.7126 20.8214 3.6251 20.8214C6.35322 20.948 9.15166 21.0042 11.997 20.9995C14.847 21.0089 17.6376 20.9495 20.3688 20.8214C22.286 20.8214 23.8376 19.1105 23.8376 17.0011C23.9501 15.3277 24.0017 13.6589 23.997 11.9855C24.0076 10.3167 23.9567 8.64641 23.8442 6.97453ZM9.70478 16.5886V7.37766L16.5017 11.9808L9.70478 16.5886Z" fill="#E0E0E0"/>
</svg>
