<svg width="24" height="24" viewBox="0 0 24 24" fill="none" xmlns="http://www.w3.org/2000/svg">
<path fill-rule="evenodd" clip-rule="evenodd" d="M22.7203 6.1875C22.8872 5.65875 22.7203 5.27437 21.982 5.27437H19.5272C18.908 5.27437 18.622 5.61094 18.4552 5.97094C18.4552 5.97094 17.1923 9.04594 15.4289 11.0395C14.857 11.6161 14.595 11.8083 14.2852 11.8083C14.1183 11.8083 13.9036 11.6161 13.9036 11.0878V6.16266C13.9036 5.53828 13.7133 5.25 13.1887 5.25H9.32812C8.94656 5.25 8.70844 5.53828 8.70844 5.82656C8.70844 6.42703 9.59016 6.57141 9.68531 8.25281V11.9062C9.68531 12.6989 9.54469 12.8438 9.2325 12.8438C8.39859 12.8438 6.37313 9.74484 5.15812 6.21375C4.92188 5.51437 4.68188 5.25 4.06219 5.25H1.58391C0.869063 5.25 0.75 5.58609 0.75 5.94656C0.75 6.59531 1.58391 9.86203 4.63406 14.1858C6.65953 17.1389 9.54281 18.7261 12.1402 18.7261C13.7133 18.7261 13.9036 18.3656 13.9036 17.7652V15.5311C13.9036 14.8106 14.0466 14.6906 14.5472 14.6906C14.9044 14.6906 15.548 14.8823 17.0016 16.2998C18.6694 17.9813 18.9553 18.75 19.8848 18.75H22.3392C23.0541 18.75 23.3878 18.3895 23.197 17.693C22.9828 16.9964 22.1723 15.9877 21.1238 14.7867C20.5519 14.1145 19.6941 13.3697 19.432 13.0092C19.0748 12.5287 19.17 12.3366 19.432 11.9044C19.4081 11.9044 22.4109 7.62844 22.7203 6.18563" fill="#E0E0E0"/>
</svg>
